<svg width="24" height="24" viewBox="0 0 24 24" fill="none" xmlns="http://www.w3.org/2000/svg">
<mask id="mask0_2016_97525" style="mask-type:alpha" maskUnits="userSpaceOnUse" x="0" y="0" width="24" height="24">
<rect width="24" height="24" fill="#D9D9D9"/>
</mask>
<g mask="url(#mask0_2016_97525)">
<path d="M18.8998 17.4999C19.0998 17.6999 19.1998 17.8999 19.1998 18.1999C19.1998 18.4999 19.0998 18.6999 18.8998 18.8999C18.6998 19.0999 18.4998 19.1999 18.1998 19.1999C17.8998 19.1999 17.6998 19.0999 17.4998 18.8999L11.9998 13.3999L6.4998 18.8999C6.2998 19.0999 6.0998 19.1999 5.7998 19.1999C5.4998 19.1999 5.2998 19.0999 5.0998 18.8999C4.8998 18.6999 4.7998 18.4999 4.7998 18.1999C4.7998 17.8999 4.8998 17.6999 5.0998 17.4999L10.5998 11.9999L5.0998 6.49993C4.9998 6.29993 4.8998 6.09993 4.8998 5.79993C4.8998 5.49993 4.9998 5.29993 5.1998 5.09993C5.5998 4.69993 6.1998 4.69993 6.5998 5.09993L12.0998 10.5999L17.5998 5.09993C17.7998 4.89993 17.9998 4.79993 18.2998 4.79993C18.5998 4.79993 18.7998 4.89993 18.9998 5.09993C19.1998 5.29993 19.2998 5.49993 19.2998 5.79993C19.2998 6.09993 18.9998 6.29993 18.8998 6.49993L13.3998 11.9999L18.8998 17.4999Z" fill="#342E34"/>
</g>
</svg>
