<svg width="146" height="32" viewBox="0 0 146 32" fill="none" xmlns="http://www.w3.org/2000/svg">
<path fill-rule="evenodd" clip-rule="evenodd" d="M5.94225 8.05285C8.37227 4.78427 12.2636 2.66665 16.6494 2.66665C21.061 2.66665 24.9721 4.80925 27.3991 8.11062C27.2959 8.21686 27.2018 8.32694 27.1167 8.43689C26.672 9.0126 26.3376 9.75418 26.0696 10.5072C25.5299 12.0218 25.1183 14.0001 24.7372 15.8527L24.7033 16.0193C24.323 17.8684 23.9696 19.5882 23.5422 20.8648C23.3502 21.4383 23.1681 21.8438 23.0067 22.1035C22.8382 21.8418 22.647 21.4313 22.4447 20.8495C21.9876 19.5363 21.6032 17.75 21.1957 15.8426L21.1825 15.7802C20.7909 13.9481 20.3755 12.0042 19.8575 10.5163C19.5973 9.76884 19.278 9.03469 18.8604 8.46431C18.4506 7.90454 17.7684 7.27279 16.7706 7.27279C15.7791 7.27279 15.0938 7.89768 14.678 8.45118C14.2524 9.01785 13.9205 9.74897 13.6472 10.4968C13.0966 12.0027 12.6465 13.9725 12.2276 15.8276L12.1844 16.0193C11.7696 17.8569 11.3818 19.575 10.9416 20.8541C10.7736 21.3426 10.615 21.7142 10.4715 21.9797C10.3313 21.7154 10.1767 21.3463 10.0132 20.8619C9.59092 19.6101 9.221 17.9401 8.8237 16.1465L8.75417 15.8326C8.3425 13.9764 7.89591 12.003 7.33754 10.4924C7.06011 9.74175 6.72078 9.00699 6.28166 8.43764C6.18223 8.30877 6.06922 8.17796 5.94225 8.05285ZM4.47153 10.5626C4.58727 10.7911 4.7097 11.0744 4.83629 11.4169C5.3196 12.7244 5.72907 14.5086 6.15073 16.41L6.23277 16.7804C6.61669 18.5153 7.01605 20.32 7.48643 21.7142C7.73661 22.4557 8.03873 23.182 8.42731 23.7465C8.79475 24.2804 9.45395 24.9699 10.4676 24.9699C11.4783 24.9699 12.1391 24.2837 12.509 23.7523C12.9009 23.1891 13.208 22.4636 13.4632 21.7216C13.9525 20.2998 14.3691 18.4528 14.7678 16.6853L14.8288 16.415C15.2584 14.5125 15.6719 12.7247 16.1517 11.4124C16.374 10.8044 16.5821 10.3809 16.7632 10.1181C16.9349 10.3786 17.1311 10.7954 17.3391 11.393C17.7963 12.7063 18.1803 14.4926 18.588 16.3999L18.6013 16.4624C18.9928 18.2945 19.4082 20.2384 19.9262 21.7261C20.1864 22.4739 20.5057 23.208 20.9233 23.7783C21.3332 24.3382 22.0153 24.9699 23.0129 24.9699C24.0158 24.9699 24.6954 24.3324 25.1005 23.7675C25.5118 23.1944 25.821 22.4578 26.0708 21.7113C26.551 20.2774 26.933 18.4168 27.2967 16.6469L27.3492 16.3899C27.741 14.4849 28.1172 12.7056 28.5817 11.402C28.6824 11.1184 28.7815 10.8766 28.8761 10.6735C29.5879 12.3049 29.9827 14.1064 29.9827 16C29.9827 23.3637 24.0133 29.3335 16.6494 29.3335C9.28561 29.3335 3.31607 23.3637 3.31607 16C3.31607 14.0634 3.72897 12.2231 4.47153 10.5626ZM16.6494 0C7.81287 0 0.649414 7.16346 0.649414 16C0.649414 24.8365 7.81287 32 16.6494 32C25.4862 32 32.6492 24.8365 32.6492 16C32.6492 7.16346 25.4862 0 16.6494 0ZM16.9523 9.89659C16.9536 9.89564 16.9542 9.89506 16.9542 9.8949C16.9542 9.89457 16.9511 9.89638 16.9449 9.90134C16.9483 9.89935 16.9507 9.89774 16.9523 9.89659ZM16.5857 9.89671C16.5795 9.89291 16.5764 9.89031 16.5764 9.88998C16.5764 9.88965 16.5795 9.89155 16.5857 9.89671ZM22.8101 22.3566C22.8101 22.3566 22.813 22.3538 22.8188 22.35C22.813 22.355 22.8101 22.3571 22.8101 22.3566ZM23.1978 22.3459C23.204 22.3496 23.2073 22.3521 23.2073 22.3525C23.2073 22.3529 23.204 22.3509 23.1978 22.3459ZM10.1943 22.3806C10.1943 22.3802 10.1981 22.3765 10.2058 22.3711C10.1982 22.3781 10.1943 22.381 10.1943 22.3806ZM10.7344 22.3736C10.742 22.3789 10.7458 22.3827 10.7458 22.3831C10.7458 22.3835 10.7419 22.381 10.7344 22.3736Z" fill="#FF8F50"/>
<path d="M41.4841 25.4722L37.604 12.2002H41.0026L43.3037 21.7528L45.9793 12.2002H49.7789L52.4549 21.7528L54.7828 12.2002H58.181L54.2746 25.4722H50.7157L47.8791 15.545L45.0429 25.4722H41.4841Z" fill="#622F60"/>
<path d="M63.1676 25.7932C62.026 25.7932 61.0895 25.6144 60.3583 25.2577C59.627 24.8832 59.0828 24.3926 58.726 23.7861C58.3693 23.1795 58.1909 22.5106 58.1909 21.7794C58.1909 20.5485 58.6724 19.5495 59.6357 18.7824C60.599 18.0154 62.0441 17.6318 63.9707 17.6318H67.3421V17.3107C67.3421 16.401 67.0832 15.732 66.5662 15.3039C66.0489 14.8758 65.4064 14.6617 64.6396 14.6617C63.9439 14.6617 63.3373 14.8312 62.82 15.1701C62.3026 15.4912 61.9814 15.9728 61.8567 16.615H58.5117C58.6013 15.6518 58.9222 14.8133 59.475 14.0998C60.0461 13.3863 60.7773 12.8422 61.6692 12.4676C62.5615 12.0751 63.5603 11.8789 64.6661 11.8789C66.5572 11.8789 68.0465 12.3516 69.1349 13.2971C70.2229 14.2425 70.7671 15.5804 70.7671 17.3107V25.472H67.8504L67.5296 23.3315C67.1369 24.045 66.584 24.6334 65.8705 25.0975C65.1748 25.5612 64.2738 25.7932 63.1676 25.7932ZM63.9439 23.1172C64.925 23.1172 65.6831 22.7959 66.2182 22.1539C66.7711 21.5118 67.1191 20.7178 67.262 19.7725H64.3452C63.4352 19.7725 62.7845 19.942 62.3918 20.2809C61.9995 20.602 61.803 21.0035 61.803 21.485C61.803 22.0023 61.9995 22.4037 62.3918 22.689C62.7845 22.9743 63.3014 23.1172 63.9439 23.1172Z" fill="#622F60"/>
<path d="M76.1588 25.4722L71.2891 12.2002H74.8743L78.2461 22.2346L81.6174 12.2002H85.2031L80.3065 25.4722H76.1588Z" fill="#622F60"/>
<path d="M92.0884 25.7932C90.7506 25.7932 89.5643 25.5075 88.5296 24.9368C87.4953 24.3658 86.6835 23.5631 86.0947 22.5284C85.5059 21.4941 85.2119 20.2987 85.2119 18.943C85.2119 17.5694 85.4972 16.3475 86.0679 15.2771C86.6567 14.2068 87.4593 13.3773 88.4763 12.7887C89.5106 12.1821 90.7238 11.8789 92.1152 11.8789C93.4175 11.8789 94.5683 12.1643 95.5671 12.7351C96.5659 13.306 97.3422 14.0909 97.8951 15.0898C98.4657 16.0709 98.7514 17.168 98.7514 18.3811C98.7514 18.5773 98.7423 18.7824 98.7246 18.9965C98.7246 19.2106 98.7155 19.4335 98.6977 19.6654H88.6101C88.6815 20.7 89.0383 21.5118 89.6804 22.1006C90.3402 22.689 91.1342 22.9834 92.062 22.9834C92.7573 22.9834 93.3374 22.8319 93.8011 22.5284C94.2826 22.2076 94.6393 21.7971 94.8714 21.2975H98.3501C98.1003 22.1361 97.6808 22.9033 97.0924 23.599C96.5213 24.2766 95.8078 24.8117 94.9515 25.2044C94.1133 25.5967 93.1587 25.7932 92.0884 25.7932ZM92.1152 14.6617C91.277 14.6617 90.5367 14.9026 89.8942 15.3842C89.2522 15.848 88.8417 16.5615 88.6634 17.5248H95.2727C95.219 16.6507 94.8982 15.955 94.3094 15.4377C93.7206 14.9204 92.9894 14.6617 92.1152 14.6617Z" fill="#622F60"/>
<path d="M100.562 25.4728V6.20703H103.987V25.4728H100.562Z" fill="#622F60"/>
<path d="M112.865 25.7932C111.527 25.7932 110.341 25.5075 109.306 24.9368C108.272 24.3658 107.46 23.5631 106.871 22.5284C106.282 21.4941 105.988 20.2987 105.988 18.943C105.988 17.5694 106.274 16.3475 106.844 15.2771C107.433 14.2068 108.236 13.3773 109.253 12.7887C110.287 12.1821 111.5 11.8789 112.892 11.8789C114.194 11.8789 115.345 12.1643 116.343 12.7351C117.342 13.306 118.119 14.0909 118.671 15.0898C119.242 16.0709 119.528 17.168 119.528 18.3811C119.528 18.5773 119.519 18.7824 119.501 18.9965C119.501 19.2106 119.492 19.4335 119.474 19.6654H109.386C109.458 20.7 109.815 21.5118 110.457 22.1006C111.117 22.689 111.911 22.9834 112.838 22.9834C113.534 22.9834 114.114 22.8319 114.577 22.5284C115.059 22.2076 115.416 21.7971 115.648 21.2975H119.126C118.877 22.1361 118.457 22.9033 117.869 23.599C117.298 24.2766 116.584 24.8117 115.728 25.2044C114.89 25.5967 113.935 25.7932 112.865 25.7932ZM112.892 14.6617C112.053 14.6617 111.313 14.9026 110.671 15.3842C110.029 15.848 109.618 16.5615 109.44 17.5248H116.049C115.995 16.6507 115.675 15.955 115.086 15.4377C114.497 14.9204 113.766 14.6617 112.892 14.6617Z" fill="#622F60"/>
<path d="M126.823 25.7932C125.646 25.7932 124.611 25.6058 123.719 25.2312C122.827 24.8386 122.114 24.3035 121.579 23.6255C121.043 22.9479 120.723 22.163 120.615 21.2711H124.067C124.174 21.788 124.46 22.2344 124.923 22.6089C125.405 22.9656 126.021 23.144 126.77 23.144C127.519 23.144 128.063 22.9925 128.402 22.689C128.759 22.3859 128.937 22.0379 128.937 21.6456C128.937 21.0746 128.687 20.691 128.188 20.495C127.688 20.2809 126.993 20.0757 126.101 19.8795C125.53 19.7546 124.95 19.603 124.362 19.4246C123.773 19.2463 123.229 19.0232 122.729 18.7557C122.247 18.4702 121.855 18.1135 121.552 17.6854C121.249 17.2394 121.097 16.6953 121.097 16.0531C121.097 14.8758 121.561 13.8857 122.489 13.083C123.434 12.2802 124.754 11.8789 126.449 11.8789C128.019 11.8789 129.267 12.2446 130.195 12.9759C131.14 13.7074 131.702 14.7152 131.88 15.9996H128.643C128.446 15.0185 127.706 14.5279 126.422 14.5279C125.78 14.5279 125.28 14.6528 124.923 14.9026C124.584 15.1523 124.415 15.4644 124.415 15.8391C124.415 16.2315 124.674 16.5437 125.191 16.7756C125.708 17.0075 126.395 17.2215 127.251 17.4178C128.179 17.6318 129.026 17.8727 129.793 18.1403C130.578 18.39 131.202 18.7735 131.667 19.2908C132.13 19.7903 132.362 20.5128 132.362 21.4581C132.38 22.279 132.166 23.0189 131.72 23.6791C131.274 24.339 130.632 24.8563 129.793 25.2312C128.955 25.6058 127.965 25.7932 126.823 25.7932Z" fill="#622F60"/>
<path d="M139.811 25.7932C138.634 25.7932 137.599 25.6058 136.707 25.2312C135.815 24.8386 135.102 24.3035 134.567 23.6255C134.032 22.9479 133.71 22.163 133.604 21.2711H137.055C137.162 21.788 137.448 22.2344 137.911 22.6089C138.393 22.9656 139.008 23.144 139.758 23.144C140.507 23.144 141.051 22.9925 141.39 22.689C141.747 22.3859 141.925 22.0379 141.925 21.6456C141.925 21.0746 141.675 20.691 141.176 20.495C140.677 20.2809 139.981 20.0757 139.089 19.8795C138.518 19.7546 137.938 19.603 137.349 19.4246C136.761 19.2463 136.217 19.0232 135.717 18.7557C135.236 18.4702 134.843 18.1135 134.54 17.6854C134.236 17.2394 134.085 16.6953 134.085 16.0531C134.085 14.8758 134.549 13.8857 135.476 13.083C136.422 12.2802 137.742 11.8789 139.437 11.8789C141.006 11.8789 142.255 12.2446 143.183 12.9759C144.128 13.7074 144.69 14.7152 144.868 15.9996H141.631C141.435 15.0185 140.694 14.5279 139.41 14.5279C138.768 14.5279 138.268 14.6528 137.911 14.9026C137.572 15.1523 137.403 15.4644 137.403 15.8391C137.403 16.2315 137.662 16.5437 138.179 16.7756C138.696 17.0075 139.383 17.2215 140.239 17.4178C141.167 17.6318 142.014 17.8727 142.782 18.1403C143.566 18.39 144.191 18.7735 144.654 19.2908C145.118 19.7903 145.35 20.5128 145.35 21.4581C145.368 22.279 145.154 23.0189 144.708 23.6791C144.262 24.339 143.62 24.8563 142.782 25.2312C141.943 25.6058 140.953 25.7932 139.811 25.7932Z" fill="#622F60"/>
</svg>
