<svg xmlns="http://www.w3.org/2000/svg" style="display: none;">
    <symbol id="aventura" viewBox="0 0 24 24" fill="none">
        <g clip-path="url(#clip0_2007_86127)">
            <path
                d="M15.375 6.75C16.4105 6.75 17.25 5.91053 17.25 4.875C17.25 3.83947 16.4105 3 15.375 3C14.3395 3 13.5 3.83947 13.5 4.875C13.5 5.91053 14.3395 6.75 15.375 6.75Z"
                stroke="currentColor" stroke-width="1.34" stroke-linecap="round" stroke-linejoin="round" />
            <path
                d="M0.75 18.75L7.60312 7.11936C7.6693 7.00658 7.76381 6.91306 7.87728 6.84807C7.99075 6.78309 8.11924 6.7489 8.25 6.7489C8.38076 6.7489 8.50925 6.78309 8.62272 6.84807C8.73619 6.91306 8.8307 7.00658 8.89688 7.11936L15.75 18.75H0.75Z"
                stroke="currentColor" stroke-width="1.34" stroke-linecap="round" stroke-linejoin="round" />
            <path d="M4.72021 12H11.7796" stroke="currentColor" stroke-width="1.34" stroke-linecap="round" stroke-linejoin="round" />
            <path
                d="M13.7446 15.3478L16.844 10.1175C16.9104 10.0056 17.0048 9.91289 17.1179 9.8485C17.231 9.78411 17.3589 9.75024 17.489 9.75024C17.6191 9.75024 17.747 9.78411 17.8601 9.8485C17.9732 9.91289 18.0676 10.0056 18.134 10.1175L23.2499 18.75H15.7499"
                stroke="currentColor" stroke-width="1.34" stroke-linecap="round" stroke-linejoin="round" />
        </g>
        <defs>
            <clipPath id="clip0_2007_86127">
                <rect width="24" height="24" fill="currentColor" />
            </clipPath>
        </defs>
    </symbol>
    <symbol id="destinos" viewBox="0 0 24 24" fill="none">
        <path
            d="M11.4726 20.3495C16.4302 20.3495 20.4492 16.353 20.4492 11.4229C20.4492 6.49291 16.4302 2.49634 11.4726 2.49634C6.51503 2.49634 2.49609 6.49291 2.49609 11.4229C2.49609 16.353 6.51503 20.3495 11.4726 20.3495Z"
            stroke="currentColor" stroke-width="1.2672" stroke-linecap="round" stroke-linejoin="round" />
        <path
            d="M3.18848 14.8586H5.60524C6.2462 14.8586 6.86091 14.6054 7.31414 14.1547C7.76737 13.704 8.022 13.0927 8.022 12.4553V10.3953C8.022 9.75792 8.27662 9.14663 8.72985 8.69592C9.18308 8.24521 9.79779 7.992 10.4388 7.992C11.0797 7.992 11.6944 7.7388 12.1477 7.28809C12.6009 6.83738 12.8555 6.22609 12.8555 5.58869V2.59485"
            stroke="currentColor" stroke-width="1.2672" stroke-linecap="round" stroke-linejoin="round" />
        <path
            d="M20.4461 11.2827C19.7547 10.9259 18.9879 10.7377 18.2089 10.7334H15.2673C14.6264 10.7334 14.0117 10.9866 13.5584 11.4373C13.1052 11.888 12.8506 12.4993 12.8506 13.1367C12.8506 13.7741 13.1052 14.3854 13.5584 14.8361C14.0117 15.2868 14.6264 15.54 15.2673 15.54C15.7252 15.54 16.1643 15.7209 16.488 16.0428C16.8117 16.3648 16.9936 16.8014 16.9936 17.2567V18.4515"
            stroke="currentColor" stroke-width="1.2672" stroke-linecap="round" stroke-linejoin="round" />
        <path
            d="M10.9144 19.7891C11.0658 19.4494 11.0892 19.0378 10.9141 18.6731C10.7389 18.3085 10.5452 17.7874 10.1461 17.6114C9.74691 17.4354 9.30393 17.4015 8.91458 17.5172C8.52523 17.633 8.2214 17.8888 8.06994 18.2285C7.96175 18.4712 7.74473 18.6539 7.46662 18.7366C7.18852 18.8192 6.8721 18.7951 6.58699 18.6693L5.83877 18.3394"
            stroke="currentColor" stroke-width="1.2672" stroke-linecap="round" stroke-linejoin="round" />
    </symbol>
    <symbol id="alojamiento" viewBox="0 0 24 24" fill="none">
        <circle cx="12.5283" cy="8.30421" r="1.056" stroke="currentColor" stroke-width="1.056" />
        <path
            d="M11.5581 4.17981C12.1144 3.69609 12.9423 3.69609 13.4985 4.17981L20.2837 10.0792C20.6379 10.3873 20.8252 10.8457 20.7876 11.3136L20.2134 18.4552C20.1514 19.2229 19.5099 19.8143 18.7397 19.8146H6.31689C5.54665 19.8144 4.90523 19.2229 4.84326 18.4552L4.26904 11.3136C4.23148 10.8457 4.41871 10.3873 4.77295 10.0792L11.5581 4.17981Z"
            stroke="currentColor" stroke-width="1.2672" />
        <line x1="7.45196" y1="19.8939" x2="7.45196" y2="21.9262" stroke="currentColor" stroke-width="1.2672" stroke-linecap="round" />
        <line x1="17.2562" y1="19.8939" x2="17.2562" y2="21.9262" stroke="currentColor" stroke-width="1.2672" stroke-linecap="round" />
        <path d="M14.996 19.262V14.7748C14.996 13.6084 14.0504 12.6628 12.884 12.6628H12.2053C11.0388 12.6628 10.0933 13.6084 10.0933 14.7748V19.262"
            stroke="currentColor" stroke-width="1.2672" />
    </symbol>
</svg>